<svg width="10" height="10" viewBox="0 0 10 10" fill="none" xmlns="http://www.w3.org/2000/svg">
<g opacity="0.7">
<path d="M4.65726 8.15391C4.69549 8.20943 4.74663 8.25482 4.8063 8.28618C4.86596 8.31754 4.93236 8.33393 4.99976 8.33393C5.06716 8.33393 5.13356 8.31754 5.19322 8.28618C5.25289 8.25482 5.30403 8.20943 5.34226 8.15391L9.09226 2.73725C9.13567 2.67477 9.16112 2.60159 9.16586 2.52567C9.17059 2.44974 9.15443 2.37396 9.11913 2.30658C9.08383 2.23919 9.03073 2.18277 8.96561 2.14344C8.90049 2.10411 8.82583 2.08338 8.74976 2.0835H1.24976C1.17386 2.08381 1.09948 2.10481 1.03463 2.14423C0.96977 2.18365 0.916886 2.24001 0.881664 2.30724C0.846441 2.37448 0.830212 2.45004 0.834722 2.5258C0.839232 2.60157 0.86431 2.67467 0.90726 2.73725L4.65726 8.15391Z" fill="white"/>
</g>
</svg>
