<svg width="7" height="14" viewBox="0 0 7 14" fill="none" xmlns="http://www.w3.org/2000/svg">
<path d="M6.40601 0.812283H4.57176C2.23564 0.788908 1.93726 2.23472 1.93726 3.79947V4.93728H0.906014C0.859403 4.93106 0.811984 4.93566 0.767441 4.95073C0.722898 4.96581 0.682429 4.99095 0.649177 5.0242C0.615926 5.05745 0.590787 5.09792 0.575714 5.14246C0.56064 5.187 0.556038 5.23442 0.562264 5.28103V7.34353C0.556038 7.39014 0.56064 7.43756 0.575714 7.48211C0.590787 7.52665 0.615926 7.56712 0.649177 7.60037C0.682429 7.63362 0.722898 7.65876 0.767441 7.67383C0.811984 7.68891 0.859403 7.69351 0.906014 7.68728H1.93726V12.8435C1.93153 12.8902 1.93655 12.9376 1.95194 12.9821C1.96732 13.0265 1.99267 13.0669 2.02603 13.1C2.0594 13.1332 2.0999 13.1583 2.14445 13.1734C2.189 13.1886 2.23642 13.1933 2.28308 13.1873H4.38339C4.5862 13.2107 4.75051 13.0463 4.68589 12.8435L4.68726 7.68728H6.40601C6.45262 7.69351 6.50004 7.68891 6.54459 7.67383C6.58913 7.65876 6.6296 7.63362 6.66285 7.60037C6.6961 7.56712 6.72124 7.52665 6.73631 7.48211C6.75139 7.43756 6.75599 7.39014 6.74976 7.34353V5.28103C6.75599 5.23442 6.75139 5.187 6.73631 5.14246C6.72124 5.09792 6.6961 5.05745 6.66285 5.0242C6.6296 4.99095 6.58913 4.96581 6.54459 4.95073C6.50004 4.93566 6.45262 4.93106 6.40601 4.93728H4.6852L4.68726 3.90603C4.75395 3.46672 4.75395 3.53822 5.16164 3.56228H6.39158C6.48714 3.54097 6.58889 3.55266 6.66039 3.48322C6.73189 3.41378 6.77314 3.31891 6.74908 3.21853V1.15603C6.75542 1.10946 6.75093 1.06205 6.73594 1.0175C6.72095 0.97295 6.69588 0.932462 6.66268 0.899192C6.62948 0.865923 6.58904 0.84077 6.54452 0.825695C6.5 0.81062 6.4526 0.806031 6.40601 0.812283ZM6.0382 2.83628L5.17608 2.80328C4.10839 2.80328 4.01901 3.38285 4.01901 3.97616L4.01626 5.27966C4.01617 5.32793 4.0256 5.37574 4.04401 5.42036C4.06242 5.46498 4.08945 5.50554 4.12355 5.5397C4.15765 5.57386 4.19815 5.60097 4.24274 5.61946C4.28732 5.63795 4.33512 5.64747 4.38339 5.64747H6.06226V6.97572H4.38476C4.28733 6.97572 4.19388 7.01438 4.12492 7.08321C4.05596 7.15204 4.01713 7.24542 4.01695 7.34285L4.01626 12.4998H2.62476V7.34353C2.62476 7.14072 2.48658 6.97641 2.28308 6.97641H1.24976V5.64816H2.28308C2.33132 5.64823 2.3791 5.6388 2.42369 5.62039C2.46828 5.60199 2.5088 5.57498 2.54295 5.54091C2.6117 5.47147 2.62408 5.37797 2.62408 5.28035V3.79878C2.62408 2.25741 2.93551 1.52316 4.57108 1.52316H6.03751V2.83628H6.0382Z" fill="white"/>
</svg>
