<svg width="86" height="86" viewBox="0 0 86 86" fill="none" xmlns="http://www.w3.org/2000/svg">
<path d="M20.6908 58.2473L42.1494 80.732C42.2591 80.847 42.3911 80.9386 42.5373 81.0012C42.6835 81.0637 42.8409 81.096 42.9999 81.096C43.159 81.096 43.3163 81.0637 43.4626 81.0012C43.6088 80.9386 43.7407 80.847 43.8505 80.732L65.3091 58.2473C68.5813 54.8188 70.9911 51.0561 72.4717 47.064C73.9827 43.0611 74.621 38.7817 74.3438 34.5122C73.8112 26.6904 70.4353 19.3338 64.8527 13.8295C59.0177 8.10875 51.172 4.9043 43.0004 4.9043C34.8289 4.9043 26.9832 8.10875 21.1482 13.8295C15.5655 19.3338 12.1895 26.6904 11.657 34.5122C11.3795 38.7816 12.0175 43.0611 13.5281 47.064C15.0088 51.0561 17.4183 54.8188 20.6908 58.2473ZM14.0022 34.6716C14.4963 27.4225 17.6256 20.6047 22.7999 15.5037C28.1947 10.2174 35.4469 7.25658 42.9999 7.25658C50.553 7.25658 57.8052 10.2174 63.2 15.5037C68.3745 20.6049 71.5038 27.423 71.9977 34.6724C72.2519 38.6097 71.6621 42.5559 70.2677 46.2468C68.8991 49.9372 66.6585 53.4288 63.6085 56.6244L42.9999 78.2171L22.392 56.6237C19.342 53.4281 17.101 49.9366 15.7329 46.2463C14.3382 42.5553 13.7482 38.609 14.0022 34.6716Z" fill="#9A9A9A"/>
<path d="M43 57.2402C55.2256 57.2402 65.1719 47.294 65.1719 35.0684C65.1719 22.8428 55.2256 12.8965 43 12.8965C30.7744 12.8965 20.8281 22.8428 20.8281 35.0684C20.8281 47.294 30.7744 57.2402 43 57.2402ZM43 15.248C46.9201 15.248 50.7521 16.4105 54.0116 18.5884C57.271 20.7663 59.8114 23.8618 61.3116 27.4835C62.8117 31.1051 63.2042 35.0903 62.4395 38.9351C61.6747 42.7799 59.787 46.3115 57.0151 49.0834C54.2432 51.8554 50.7115 53.7431 46.8668 54.5078C43.022 55.2726 39.0368 54.8801 35.4151 53.3799C31.7934 51.8798 28.6979 49.3394 26.52 46.0799C24.3421 42.8205 23.1797 38.9884 23.1797 35.0684C23.1856 29.8135 25.2758 24.7756 28.9915 21.0599C32.7072 17.3441 37.7452 15.254 43 15.248Z" fill="#9A9A9A"/>
<path d="M32.5173 36.3677L31.8129 38.7179C31.7753 38.8237 31.7527 38.9341 31.7457 39.0461V46.7572C31.7537 47.6703 32.1186 48.544 32.7623 49.1916C33.406 49.8392 34.2775 50.2093 35.1905 50.2228H36.9725C38.8491 50.2228 40.3121 48.6338 40.3121 46.7572V39.0461C40.3227 38.9365 40.3177 38.8259 40.2971 38.7177L39.6298 36.3677C39.914 36.3183 40.169 36.1634 40.3438 35.934C40.5185 35.7046 40.6002 35.4176 40.5723 35.1305C40.5444 34.8435 40.4091 34.5775 40.1935 34.386C39.9778 34.1945 39.6978 34.0915 39.4094 34.0978H37.2886V21.2866C37.2886 20.9748 37.1648 20.6757 36.9443 20.4552C36.7238 20.2347 36.4247 20.1108 36.1129 20.1108C35.801 20.1108 35.502 20.2347 35.2815 20.4552C35.061 20.6757 34.9371 20.9748 34.9371 21.2866V34.0978H32.7535C32.4651 34.0897 32.1843 34.1909 31.9673 34.381C31.7503 34.5712 31.6132 34.8363 31.5833 35.1233C31.5534 35.4102 31.6331 35.6979 31.8063 35.9286C31.9795 36.1594 32.2334 36.3162 32.5173 36.3677ZM34.0972 39.2136L34.9593 36.4493H37.2037L37.9605 39.2136V46.7572C37.9605 47.3372 37.5524 47.8712 36.9725 47.8712H35.1905C34.9011 47.8585 34.6273 47.7364 34.4244 47.5297C34.2214 47.3229 34.1045 47.0468 34.0972 46.7572V39.2136Z" fill="#B20D16"/>
<path d="M43.6726 33.3996V46.7921C43.6726 47.6831 44.0265 48.5375 44.6565 49.1675C45.2865 49.7975 46.141 50.1515 47.0319 50.1515C47.9229 50.1515 48.7774 49.7975 49.4074 49.1675C50.0374 48.5375 50.3913 47.6831 50.3913 46.7921V33.3996C52.7429 32.1439 54.4429 29.5731 54.4429 26.7648C54.4453 25.3796 54.0595 24.0214 53.3294 22.8442C52.5992 21.667 51.5539 20.7178 50.3119 20.1044C50.1267 20.0148 49.9222 19.9727 49.7166 19.9818C49.5111 19.9908 49.3111 20.0509 49.1346 20.1565C48.9601 20.26 48.8144 20.4059 48.7112 20.5806C48.6079 20.7553 48.5503 20.9532 48.5437 21.156V24.119L46.9873 25.1744L45.3497 24.0196L45.3665 21.1572C45.3682 20.9568 45.3184 20.7593 45.222 20.5836C45.1255 20.4079 44.9856 20.2599 44.8156 20.1537C44.6456 20.0475 44.4512 19.9867 44.251 19.9772C44.0507 19.9676 43.8514 20.0095 43.6721 20.099C42.4391 20.7183 41.4025 21.6682 40.6782 22.8426C39.9539 24.017 39.5703 25.3696 39.5703 26.7494C39.5703 28.1292 39.9539 29.4818 40.6782 30.6562C41.4025 31.8306 42.4391 32.7805 43.6721 33.3998L43.6726 33.3996ZM43.014 23.5718L43.0103 24.6256C43.0096 24.8154 43.0549 25.0025 43.1423 25.171C43.2296 25.3395 43.3565 25.4843 43.512 25.5931L46.3253 27.5614C46.5191 27.6969 46.7493 27.7709 46.9859 27.7736C47.2224 27.7763 47.4542 27.7076 47.6511 27.5765L50.3995 25.7273C50.5572 25.6184 50.6851 25.4719 50.7716 25.3009C50.8582 25.13 50.9007 24.9402 50.8952 24.7487V23.5729C51.7351 24.4588 52.0426 25.5745 52.0426 26.7643C52.0468 27.7977 51.7357 28.8077 51.151 29.6596C50.5662 30.5116 49.7355 31.1649 48.7697 31.5325C48.5492 31.6182 48.3605 31.7701 48.2298 31.9674C48.0991 32.1647 48.0327 32.3976 48.0398 32.6342V46.7921C48.0398 47.0594 47.9336 47.3157 47.7446 47.5047C47.5556 47.6937 47.2992 47.7999 47.0319 47.7999C46.7647 47.7999 46.5083 47.6937 46.3193 47.5047C46.1303 47.3157 46.0241 47.0594 46.0241 46.7921V32.6342C46.0181 32.392 45.9391 32.1573 45.7975 31.9608C45.6559 31.7642 45.4583 31.615 45.2305 31.5326C44.2592 31.1676 43.4216 30.5163 42.8285 29.6649C42.2354 28.8135 41.9147 27.8021 41.9089 26.7645C41.9002 25.605 42.2904 24.4778 43.014 23.5718Z" fill="#B20D16"/>
</svg>
