<svg width="88" height="88" viewBox="0 0 88 88" fill="none" xmlns="http://www.w3.org/2000/svg">
<path d="M81.8397 39.7656L79.5608 30.6502C80.1838 30.5179 80.6513 29.9651 80.6513 29.3029V27.8332C80.6513 24.6421 78.0551 22.0462 74.8643 22.0462H64.4844V19.0146C64.4844 17.4444 63.207 16.167 61.6368 16.167H8.72644C7.15619 16.167 5.87881 17.4444 5.87881 19.0146V44.0001C5.87881 44.761 6.49567 45.378 7.25673 45.378C8.01762 45.378 8.63466 44.7612 8.63466 44.0001V19.0146C8.63466 18.9639 8.67573 18.9228 8.72644 18.9228H61.6366C61.6873 18.9228 61.7284 18.9639 61.7284 19.0146V44.0004C61.7284 44.7613 62.3452 45.3784 63.1063 45.3784C63.8672 45.3784 64.4842 44.7615 64.4842 44.0004V42.4384H80.7383C80.7397 42.4384 80.7407 42.4388 80.7419 42.4388C80.7433 42.4388 80.7445 42.4386 80.7457 42.4386C82.7458 42.44 84.4441 43.7528 85.0274 45.5617H80.7429C79.982 45.5617 79.365 46.1786 79.365 46.9397V49.8791C79.365 52.2597 81.3017 54.1964 83.6823 54.1964H85.244V60.2589H81.6411C80.4576 56.8416 77.209 54.38 73.3942 54.38C69.5795 54.38 66.3307 56.8416 65.1473 60.2589H64.4839V49.8789C64.4839 49.118 63.867 48.501 63.106 48.501C62.3451 48.501 61.728 49.1178 61.728 49.8789V60.2586H33.1404C31.9569 56.8412 28.7083 54.3796 24.8935 54.3796C21.0788 54.3796 17.83 56.8412 16.6466 60.2586H8.72644C8.67573 60.2586 8.63466 60.2175 8.63466 60.1668V57.1355H14.6054C15.3663 57.1355 15.9833 56.5186 15.9833 55.7575C15.9833 54.9965 15.3665 54.3796 14.6054 54.3796H1.37792C0.617031 54.3796 0 54.9965 0 55.7575C0 56.5186 0.616859 57.1355 1.37792 57.1355H5.87898V60.1668C5.87898 61.7371 7.15636 63.0145 8.72661 63.0145H16.1695C16.1691 63.045 16.1671 63.0755 16.1671 63.1062C16.1671 67.918 20.0819 71.8327 24.8935 71.8327C29.7052 71.8327 33.62 67.918 33.62 63.1062C33.62 63.0753 33.6179 63.045 33.6175 63.0145H64.6702C64.6699 63.045 64.6678 63.0755 64.6678 63.1062C64.6678 67.918 68.5826 71.8327 73.3942 71.8327C78.2059 71.8327 82.1207 67.918 82.1207 63.1062C82.1207 63.0753 82.1186 63.045 82.1183 63.0145H86.6219C87.3828 63.0145 87.9998 62.3976 87.9998 61.6365V46.9393C88 43.3107 85.3227 40.2958 81.8397 39.7656ZM64.4844 24.8018H74.8643C76.5358 24.8018 77.8956 26.1617 77.8956 27.8332V27.925H64.4844V24.8018ZM64.4844 39.6828V30.6806H76.7279L78.9785 39.6828H64.4844ZM24.8935 69.0773C21.6013 69.0773 18.9228 66.399 18.9228 63.1066C18.9228 59.8141 21.6013 57.1358 24.8935 57.1358C28.1858 57.1358 30.8643 59.8141 30.8643 63.1066C30.8643 66.399 28.1858 69.0773 24.8935 69.0773ZM73.3946 69.0773C70.1023 69.0773 67.4238 66.399 67.4238 63.1066C67.4238 59.8141 70.1023 57.1358 73.3946 57.1358C76.6868 57.1358 79.3653 59.8141 79.3653 63.1066C79.3653 66.399 76.6868 69.0773 73.3946 69.0773ZM85.2443 51.4406H83.6827C82.8216 51.4406 82.121 50.74 82.121 49.8789V48.3172H85.2442V51.4406H85.2443Z" fill="#9A9A9A"/>
<path d="M24.8935 60.2588C23.3233 60.2588 22.0459 61.5362 22.0459 63.1064C22.0459 64.6767 23.3233 65.954 24.8935 65.954C26.4638 65.954 27.7411 64.6767 27.7411 63.1064C27.7411 61.5362 26.4638 60.2588 24.8935 60.2588Z" fill="#9A9A9A"/>
<path d="M73.3945 60.2588C71.8243 60.2588 70.5469 61.5362 70.5469 63.1064C70.5469 64.6767 71.8243 65.954 73.3945 65.954C74.9648 65.954 76.2421 64.6767 76.2421 63.1064C76.2421 61.5362 74.9648 60.2588 73.3945 60.2588Z" fill="#9A9A9A"/>
<path d="M57.2275 54.3801H36.6514C35.8905 54.3801 35.2734 54.997 35.2734 55.758C35.2734 56.5191 35.8903 57.136 36.6514 57.136H57.2275C57.9884 57.136 58.6055 56.5191 58.6055 55.758C58.6055 54.997 57.9886 54.3801 57.2275 54.3801Z" fill="#9A9A9A"/>
<path d="M21.9542 48.501H4.31737C3.55648 48.501 2.93945 49.1178 2.93945 49.8789C2.93945 50.64 3.55631 51.2568 4.31737 51.2568H21.9542C22.715 51.2568 23.3321 50.64 23.3321 49.8789C23.3321 49.1178 22.715 48.501 21.9542 48.501Z" fill="#9A9A9A"/>
<path d="M47.9137 29.798C47.3757 29.26 46.5031 29.26 45.9652 29.7982L33.7118 42.0513L27.3375 35.677C26.7994 35.1388 25.9269 35.1388 25.389 35.677C24.8508 36.2151 24.8508 37.0874 25.389 37.6255L32.7376 44.9742C33.0066 45.2434 33.3593 45.3778 33.7118 45.3778C34.0644 45.3778 34.4172 45.2434 34.686 44.9742L47.9135 31.7467C48.4517 31.2084 48.4517 30.3361 47.9137 29.798Z" fill="#B20D16"/>
</svg>
