<svg width="68" height="68" viewBox="0 0 68 68" fill="none" xmlns="http://www.w3.org/2000/svg">
<path d="M32.8525 67.9943C30.8918 67.9943 28.9283 67.2492 27.4352 65.756L2.24117 40.562C0.796167 39.117 0 37.1932 0 35.1447C0 33.099 0.796167 31.178 2.244 29.7302L29.7302 2.244C31.178 0.796167 33.1018 0 35.1475 0H60.3387C64.5632 0 68 3.43683 68 7.66133V32.8553C68 34.8698 67.1812 36.8447 65.756 38.2698L38.2698 65.756C36.7767 67.2492 34.816 67.9943 32.8525 67.9943ZM35.1475 4.25C34.238 4.25 33.3795 4.60417 32.7335 5.25017L5.25017 32.7363C4.60417 33.3795 4.25 34.2352 4.25 35.1447C4.25 36.057 4.60417 36.9127 5.25017 37.5587L30.4442 62.7527C31.773 64.0815 33.9377 64.0815 35.2693 62.7527L62.7555 35.2665C63.3902 34.629 63.7557 33.7535 63.7557 32.8553V7.66133C63.7557 5.78 62.2257 4.25 60.3443 4.25H35.1475Z" fill="#9A9A9A"/>
<path d="M55.2497 14.4166C54.3336 14.4166 53.583 13.6659 53.583 12.7499C53.583 11.8339 54.3336 11.0833 55.2497 11.0833C56.1657 11.0833 56.9163 11.8339 56.9163 12.7499C56.9163 13.6659 56.1657 14.4166 55.2497 14.4166ZM55.2497 11.3333C54.4677 11.3333 53.833 11.9708 53.833 12.7499C53.833 13.5291 54.4677 14.1666 55.2497 14.1666C56.0317 14.1666 56.6663 13.5291 56.6663 12.7499C56.6663 11.9708 56.0317 11.3333 55.2497 11.3333Z" fill="#9A9A9A" stroke="#222222" stroke-width="8"/>
<path d="M45.25 20.6875L32.4625 34.75L28.75 31.9381H26.6875L32.4625 41.3125L47.3125 20.6875H45.25Z" fill="#B20D16"/>
</svg>
