<svg width="81" height="81" viewBox="0 0 81 81" fill="none" xmlns="http://www.w3.org/2000/svg">
<path d="M73.8809 42.873H76.2539V45.2461H73.8809V42.873Z" fill="#9A9A9A"/>
<path d="M65.7818 15.2182C59.0287 8.46513 50.0502 4.74609 40.5 4.74609V7.11914C58.9063 7.11914 73.8809 22.0937 73.8809 40.5H76.2539C76.2539 30.9499 72.5349 21.9713 65.7818 15.2182Z" fill="#9A9A9A"/>
<path d="M11.8652 41.1121V40.5C11.8652 24.7107 24.7107 11.8652 40.5 11.8652C56.2893 11.8652 69.1348 24.7107 69.1348 40.5C69.1348 47.7226 66.4361 54.6212 61.5361 59.925L63.2792 61.5355C68.5855 55.7918 71.5078 48.3212 71.5078 40.5C71.5078 23.4024 57.5978 9.49219 40.5 9.49219C23.6079 9.49219 9.82726 23.0685 9.4982 39.8836L5.93262 42.4195L2.37779 39.8914C2.52761 30.3611 6.19397 21.3185 12.7401 14.3675L11.0127 12.7406C3.9111 20.281 0 30.1396 0 40.5V41.1121L5.93262 45.3314L11.8652 41.1121Z" fill="#9A9A9A"/>
<path d="M69.1374 11.8621C61.488 4.21279 51.3176 0 40.4997 0C30.1397 0 20.2813 3.9111 12.7402 11.0127L14.3672 12.7403C21.4661 6.05475 30.7469 2.37305 40.4997 2.37305C61.523 2.37305 78.6266 19.4767 78.6266 40.5C78.6266 60.734 62.7834 77.3374 42.8504 78.5553L45.331 75.0674L42.7423 71.4274C49.7408 70.9245 56.3434 68.0759 61.535 63.2792L59.9246 61.5361C54.6213 66.4361 47.7227 69.1348 40.4997 69.1348H38.1999L42.419 75.0674L38.1999 81H40.4997C51.3176 81 61.488 76.7872 69.1374 69.1379C76.7869 61.4883 80.9996 51.3179 80.9996 40.5C80.9996 29.6821 76.7869 19.5117 69.1374 11.8621Z" fill="#9A9A9A"/>
<path d="M32.3544 57.6804H30.0928V54.0652H27.7197V63.6686H30.0928V60.0535H32.3544V63.6686H34.7275V54.0652H32.3544V57.6804Z" fill="#B20D16"/>
<path d="M1.18652 56.4382H9.70703V61.2955H1.18652V70.899H12.0801V68.5259H3.55957V63.6686H12.0801V54.0652H1.18652V56.4382Z" fill="#B20D16"/>
<path d="M22.9736 61.2955H16.8262V54.0652H14.4531V63.6686H22.9736V70.8988H25.3467V54.0652H22.9736V61.2955Z" fill="#B20D16"/>
<path d="M45.2459 40.5001C45.2459 39.6211 45.0048 38.7978 44.5867 38.0911L55.1782 27.4996L53.5003 25.8215L42.9086 36.4131C42.2021 35.9949 41.3788 35.754 40.4998 35.754C39.6208 35.754 38.7975 35.9949 38.091 36.4131L31.9552 30.2775L30.2773 31.9555L36.4129 38.0911C35.9946 38.7978 35.7537 39.6211 35.7537 40.5001C35.7537 43.1171 37.8828 45.2462 40.4998 45.2462C43.1168 45.2462 45.2459 43.1171 45.2459 40.5001ZM38.1267 40.5001C38.1267 39.1916 39.1913 38.127 40.4998 38.127C41.8083 38.127 42.8728 39.1916 42.8728 40.5001C42.8728 41.8086 41.8083 42.8731 40.4998 42.8731C39.1913 42.8731 38.1267 41.8086 38.1267 40.5001Z" fill="#9A9A9A"/>
<path d="M64.3887 39.3135H66.7617V41.6865H64.3887V39.3135Z" fill="#9A9A9A"/>
<path d="M56.543 22.7703L58.2206 21.0926L59.8983 22.7704L58.2207 24.448L56.543 22.7703Z" fill="#9A9A9A"/>
<path d="M21.0869 22.769L22.7647 21.0913L24.4423 22.7689L22.7645 24.4467L21.0869 22.769Z" fill="#9A9A9A"/>
<path d="M14.2383 39.3135H16.6113V41.6865H14.2383V39.3135Z" fill="#9A9A9A"/>
<path d="M39.3135 64.3887H41.6865V66.7617H39.3135V64.3887Z" fill="#9A9A9A"/>
<path d="M56.541 58.2346L58.2188 56.5569L59.8964 58.2345L58.2186 59.9123L56.541 58.2346Z" fill="#9A9A9A"/>
<path d="M39.3135 14.2383H41.6865V16.6113H39.3135V14.2383Z" fill="#9A9A9A"/>
</svg>
