<svg width="79" height="79" viewBox="0 0 79 79" fill="none" xmlns="http://www.w3.org/2000/svg">
<g clip-path="url(#clip0)">
<path d="M18.2452 23.0775H26.3323C26.8666 23.0775 27.3001 22.644 27.3001 22.1097C27.3001 21.5753 26.8666 21.1418 26.3323 21.1418H18.2452C17.7108 21.1418 17.2773 21.5753 17.2773 22.1097C17.2773 22.644 17.7108 23.0775 18.2452 23.0775Z" fill="#B20D16"/>
<path d="M51.3871 33.5047C51.3871 32.9704 50.9536 32.5369 50.4193 32.5369H38.3789C37.8446 32.5369 37.4111 32.9704 37.4111 33.5047C37.4111 34.0396 37.8446 34.4725 38.3789 34.4725H50.4193C50.9536 34.4725 51.3871 34.0396 51.3871 33.5047Z" fill="#B20D16"/>
<path d="M30.5157 32.5369C29.9807 32.5369 29.5479 32.9704 29.5479 33.5047C29.5479 34.0396 29.9807 34.4725 30.5157 34.4725H34.2861C34.8204 34.4725 35.2539 34.0396 35.2539 33.5047C35.2539 32.9704 34.8204 32.5369 34.2861 32.5369H30.5157Z" fill="#B20D16"/>
<path d="M18.2452 34.4725H26.355C26.8893 34.4725 27.3228 34.0396 27.3228 33.5047C27.3228 32.9704 26.8893 32.5369 26.355 32.5369H18.2452C17.7108 32.5369 17.2773 32.9704 17.2773 33.5047C17.2773 34.0396 17.7108 34.4725 18.2452 34.4725Z" fill="#B20D16"/>
<path d="M35.2241 43.9326H18.2452C17.7108 43.9326 17.2773 44.3661 17.2773 44.9004C17.2773 45.4354 17.7108 45.8683 18.2452 45.8683H35.2241C35.7584 45.8683 36.1919 45.4354 36.1919 44.9004C36.1919 44.3661 35.7584 43.9326 35.2241 43.9326Z" fill="#B20D16"/>
<path d="M48.0948 23.0775H50.4173C50.9522 23.0775 51.3851 22.644 51.3851 22.1097C51.3851 21.5753 50.9522 21.1418 50.4173 21.1418H48.0948C47.5605 21.1418 47.127 21.5753 47.127 22.1097C47.127 22.644 47.5605 23.0775 48.0948 23.0775Z" fill="#B20D16"/>
<path d="M30.3555 23.0775H44.0164C44.5507 23.0775 44.9842 22.644 44.9842 22.1097C44.9842 21.5753 44.5507 21.1418 44.0164 21.1418H30.3555C29.8212 21.1418 29.3877 21.5753 29.3877 22.1097C29.3877 22.644 29.8212 23.0775 30.3555 23.0775Z" fill="#B20D16"/>
<path d="M46.6891 49.7957H46.669C45.2122 49.8108 44.0409 50.9991 44.0459 52.4559C44.0516 53.9133 45.2311 55.0928 46.6885 55.0972H46.708C48.1648 55.0821 49.3361 53.8937 49.3311 52.437C49.3254 50.9802 48.1459 49.8007 46.6891 49.7957ZM46.6935 53.1616H46.6885C46.2972 53.1572 45.9822 52.8402 45.9809 52.4489C45.9796 52.0583 46.2922 51.7382 46.6828 51.7313H46.6885C47.0791 51.7357 47.3942 52.0526 47.3961 52.4439C47.3973 52.8346 47.0842 53.1546 46.6935 53.1616Z" fill="#9A9A9A"/>
<path d="M73.0251 49.6016C71.5614 49.6067 70.3788 50.7975 70.3838 52.2619C70.3895 53.7256 71.5803 54.9082 73.0447 54.9032H73.0642C74.5285 54.8925 75.7061 53.6966 75.6954 52.2329C75.6847 50.7686 74.4894 49.5903 73.0251 49.6016ZM73.5544 52.754C73.4214 52.8894 73.2406 52.9663 73.051 52.9676H73.0453C72.6502 52.9688 72.3289 52.65 72.3276 52.2549C72.3264 51.8599 72.6452 51.5385 73.0402 51.5373H73.0459C73.3339 51.5373 73.5941 51.7099 73.705 51.9764C73.8165 52.2423 73.7573 52.5486 73.555 52.754H73.5544Z" fill="#9A9A9A"/>
<path d="M75.7269 45.2161L72.7548 39.8326C71.7706 38.0986 70.3277 36.112 67.8981 36.1277L59.9036 36.187V25.7918H71.046C71.581 25.7918 72.0138 25.3583 72.0138 24.824V11.986C72.01 8.10842 68.8678 4.96681 64.9909 4.9624C64.9102 4.9624 64.8308 4.96555 64.7508 4.9687C64.7155 4.96429 64.6803 4.9624 64.645 4.9624H17.994C13.6735 4.97626 10.1633 8.45245 10.1066 12.7723L9.755 55.7971H0.967813C0.433499 55.7971 0 56.23 0 56.7649V63.1956C0 68.9785 4.4377 73.7212 10.0209 74.0722C10.0896 74.0873 10.1595 74.0948 10.2295 74.0948H48.6162C48.6647 74.0948 48.7126 74.0904 48.7605 74.0829C48.913 74.0898 49.0655 74.0948 49.2198 74.0948C54.7772 74.0948 59.4568 69.6716 59.8733 64.0242C59.8746 64.0002 59.8758 63.9763 59.8758 63.953V59.5562L70.2565 59.4794L70.271 61.4698C70.2786 62.4477 71.0731 63.2359 72.051 63.2366H72.0642L74.5298 63.2183C75.5121 63.2101 76.3028 62.408 76.2965 61.4251L76.2801 59.3092C77.3229 58.9639 78.0356 57.9999 78.0595 56.9017L78.9927 49.4194C78.9977 49.3778 79.0002 49.335 79.0002 49.2928C78.9983 48.2443 78.6178 47.2324 77.9278 46.4435C77.3601 45.7901 76.5813 45.356 75.7269 45.2161ZM67.9126 38.0634H67.9296C69.048 38.0634 69.9887 38.8799 71.0656 40.7778L73.4964 45.1814L71.5545 45.1959C71.1317 43.1759 69.3429 41.7342 67.2794 41.7494C65.2158 41.7645 63.4491 43.2326 63.0559 45.2583L46.1217 45.3831L48.5815 40.9485C48.591 40.9315 48.6005 40.9132 48.6086 40.895C49.0881 39.8875 50.1341 38.195 51.7477 38.1831L67.9126 38.0634ZM69.5439 45.2092L65.0671 45.2413C65.4149 44.3119 66.3002 43.6925 67.2926 43.6831H67.3109C68.2982 43.6825 69.1854 44.2892 69.5439 45.2092ZM70.0782 11.9853V23.8555H59.9036V11.986C59.9193 9.18713 62.1927 6.92701 64.9909 6.92701C67.7897 6.92701 70.0624 9.1865 70.0782 11.9853ZM10.6837 72.1605C5.86106 72.1605 1.93563 68.1399 1.93563 63.1969V57.734H38.5298V63.1969C38.521 66.7581 40.243 70.1007 43.1471 72.1605H10.6837ZM57.9402 63.9183C57.5811 68.5431 53.7577 72.1605 49.2135 72.1605C44.3908 72.1605 40.4654 68.1399 40.4654 63.1969V56.7662C40.4654 56.2313 40.0325 55.7984 39.4976 55.7984H11.6906L12.0422 12.7912C12.0851 9.53179 14.7346 6.90937 17.994 6.89929H60.1569C58.7593 8.22184 57.9673 10.0617 57.9679 11.9866V36.2015L51.7332 36.2468C49.763 36.2619 48.0378 37.6065 46.874 40.0349L43.8792 45.4347C43.0229 45.586 42.2479 46.039 41.696 46.7113C41.0312 47.5159 40.6746 48.531 40.6903 49.575C40.6903 49.6154 40.6935 49.6563 40.6985 49.6966L41.7004 57.1663C41.7407 58.2816 42.488 59.2462 43.5572 59.565L43.573 61.6664C43.5806 62.6443 44.3751 63.4332 45.3524 63.4332H45.3662L47.8311 63.4149C48.8134 63.4061 49.6035 62.6046 49.5972 61.6223L49.5828 59.6318L57.9402 59.5707V63.9183ZM47.6471 59.6476L47.661 61.4818L45.5067 61.4975L45.4935 59.6633L47.6471 59.6476ZM72.206 61.3009L72.1921 59.4668L74.3458 59.4504L74.3596 61.2846L72.206 61.3009ZM76.1321 56.7189C76.1264 56.7612 76.1239 56.8034 76.1245 56.8456C76.1226 57.2066 75.834 57.4996 75.473 57.5072L59.012 57.6282C58.9395 57.62 58.8658 57.6206 58.7934 57.6301L44.2951 57.7365C43.934 57.7365 43.6398 57.4467 43.6341 57.0857C43.6335 57.0453 43.631 57.0044 43.6253 56.9641L42.6253 49.5057C42.6285 48.9424 42.8232 48.3961 43.1773 47.9576C43.476 47.589 43.9132 47.3609 44.3858 47.3263C44.4142 47.3288 44.4419 47.3319 44.4709 47.3319H44.4778L75.1094 47.1057H75.1239H75.1315C75.6501 47.1045 76.1428 47.3313 76.4786 47.7264C76.8428 48.1517 77.0495 48.6891 77.0633 49.2486L76.1321 56.7189Z" fill="#9A9A9A"/>
<path d="M55.5561 49.9841H55.5498C55.0148 49.9879 54.5851 50.4246 54.5889 50.9589L54.6002 52.5095C54.604 53.0413 55.0363 53.4704 55.568 53.4704H55.5756C56.1099 53.4666 56.5403 53.03 56.5359 52.4957L56.5245 50.945C56.5207 50.4126 56.0885 49.9835 55.5561 49.9841Z" fill="#9A9A9A"/>
<path d="M52.6751 50.0049C52.1408 50.0093 51.7111 50.4454 51.7149 50.9803L51.7262 52.5309C51.73 53.0627 52.1622 53.4918 52.694 53.4918H52.7016C53.2359 53.488 53.6656 53.0514 53.6618 52.5171L53.6505 50.9658C53.6492 50.7087 53.5459 50.463 53.3625 50.2828C53.1798 50.102 52.9322 50.0024 52.6751 50.0049Z" fill="#9A9A9A"/>
<path d="M67.0384 49.8989C66.5041 49.9033 66.0737 50.3394 66.0782 50.8743L66.0895 52.425C66.0933 52.9567 66.5255 53.3858 67.0573 53.3858H67.0642C67.5992 53.3821 68.0289 52.9454 68.0251 52.4111L68.0138 50.8598C68.0087 50.3255 67.5727 49.8964 67.0384 49.8989Z" fill="#9A9A9A"/>
<path d="M58.4209 49.9626C57.8859 49.9671 57.4562 50.4037 57.46 50.938L57.4713 52.4887C57.4751 53.0205 57.9073 53.4495 58.4391 53.4495H58.4467C58.981 53.4451 59.4114 53.0091 59.4076 52.4742L59.3956 50.9235C59.3887 50.3905 58.9539 49.962 58.4209 49.9626Z" fill="#9A9A9A"/>
<path d="M61.2933 49.9418C60.759 49.9455 60.3286 50.3822 60.333 50.9165L60.3444 52.4671C60.3482 52.9989 60.7804 53.428 61.3122 53.428H61.3191C61.8541 53.4242 62.2838 52.9876 62.28 52.4533L62.2687 50.902C62.2687 50.6449 62.1653 50.3986 61.982 50.2177C61.7986 50.0375 61.551 49.938 61.2933 49.9418Z" fill="#9A9A9A"/>
<path d="M64.1739 49.9204H64.1663C63.632 49.9242 63.2023 50.3608 63.2061 50.8952L63.2174 52.4464C63.2212 52.9776 63.6534 53.4067 64.1852 53.4067H64.1928C64.7271 53.4029 65.1575 52.9663 65.1531 52.4319L65.1417 50.8813C65.1379 50.3495 64.7057 49.9204 64.1739 49.9204Z" fill="#9A9A9A"/>
</g>
<defs>
<clipPath id="clip0">
<rect width="79" height="79" fill="white"/>
</clipPath>
</defs>
</svg>
