<svg width="20" height="20" viewBox="0 0 20 20" fill="none" xmlns="http://www.w3.org/2000/svg">
<path d="M2.42359 6.96975H17.5751M9.99935 18.3334C14.6016 18.3334 18.3327 14.6023 18.3327 10.0001C18.3327 5.39778 14.6016 1.66672 9.99935 1.66672C5.39708 1.66672 1.66602 5.39778 1.66602 10.0001C1.66602 14.6023 5.39708 18.3334 9.99935 18.3334ZM9.99935 18.3334C12.2721 18.3334 13.0297 14.5455 13.0297 10.0001C13.0297 5.4546 12.2721 1.66672 9.99935 1.66672C7.72662 1.66672 6.96905 5.4546 6.96905 10.0001C6.96905 14.5455 7.72662 18.3334 9.99935 18.3334ZM2.42359 13.0304H17.5751H2.42359Z" stroke="white" stroke-width="2"/>
</svg>
