<svg width="12" height="12" viewBox="0 0 12 12" fill="none" xmlns="http://www.w3.org/2000/svg">
<path d="M5.99982 3.19611C4.44806 3.19611 3.19572 4.44845 3.19572 6.00021C3.19572 7.55197 4.44806 8.80431 5.99982 8.80431C7.55158 8.80431 8.80392 7.55197 8.80392 6.00021C8.80392 4.44845 7.55158 3.19611 5.99982 3.19611ZM5.99982 7.82267C4.9963 7.82267 4.17736 7.00373 4.17736 6.00021C4.17736 4.9967 4.9963 4.17775 5.99982 4.17775C7.00334 4.17775 7.82228 4.9967 7.82228 6.00021C7.82228 7.00373 7.00334 7.82267 5.99982 7.82267ZM8.91877 2.42775C8.55646 2.42775 8.26388 2.72033 8.26388 3.08263C8.26388 3.44494 8.55646 3.73752 8.91877 3.73752C9.28107 3.73752 9.57365 3.44631 9.57365 3.08263C9.57376 2.9966 9.55689 2.9114 9.52402 2.83189C9.49115 2.75239 9.44291 2.68015 9.38208 2.61932C9.32125 2.55849 9.24901 2.51025 9.16951 2.47738C9.09 2.44451 9.0048 2.42764 8.91877 2.42775ZM11.4658 6.00021C11.4658 5.24552 11.4727 4.49767 11.4303 3.74435C11.3879 2.86935 11.1883 2.09279 10.5485 1.45295C9.90724 0.811735 9.13205 0.613493 8.25705 0.57111C7.50236 0.528727 6.75451 0.535563 6.00119 0.535563C5.2465 0.535563 4.49865 0.528727 3.74533 0.57111C2.87033 0.613493 2.09377 0.813102 1.45392 1.45295C0.812711 2.09416 0.614469 2.86935 0.572086 3.74435C0.529704 4.49904 0.536539 5.24689 0.536539 6.00021C0.536539 6.75353 0.529704 7.50275 0.572086 8.25607C0.614469 9.13107 0.814079 9.90763 1.45392 10.5475C2.09513 11.1887 2.87033 11.3869 3.74533 11.4293C4.50002 11.4717 5.24787 11.4649 6.00119 11.4649C6.75587 11.4649 7.50373 11.4717 8.25705 11.4293C9.13205 11.3869 9.90861 11.1873 10.5485 10.5475C11.1897 9.90627 11.3879 9.13107 11.4303 8.25607C11.474 7.50275 11.4658 6.7549 11.4658 6.00021ZM10.2627 9.22404C10.1629 9.47287 10.0426 9.6588 9.84982 9.85021C9.65705 10.043 9.47248 10.1633 9.22365 10.2631C8.50451 10.5488 6.79689 10.4846 5.99982 10.4846C5.20275 10.4846 3.49377 10.5488 2.77463 10.2645C2.5258 10.1647 2.33986 10.0444 2.14845 9.85158C1.95568 9.6588 1.83537 9.47423 1.73556 9.22541C1.45119 8.5049 1.51545 6.79728 1.51545 6.00021C1.51545 5.20314 1.45119 3.49416 1.73556 2.77502C1.83537 2.52619 1.95568 2.34025 2.14845 2.14884C2.34123 1.95744 2.5258 1.83576 2.77463 1.73595C3.49377 1.45158 5.20275 1.51584 5.99982 1.51584C6.79689 1.51584 8.50588 1.45158 9.22502 1.73595C9.47384 1.83576 9.65978 1.95607 9.85119 2.14884C10.044 2.34162 10.1643 2.52619 10.2641 2.77502C10.5485 3.49416 10.4842 5.20314 10.4842 6.00021C10.4842 6.79728 10.5485 8.5049 10.2627 9.22404Z" fill="white"/>
</svg>
