<svg width="18" height="18" viewBox="0 0 18 18" fill="none" xmlns="http://www.w3.org/2000/svg">
<path d="M10.6656 2.66732C10.6846 2.59593 10.7175 2.52899 10.7624 2.47033C10.8073 2.41166 10.8634 2.36243 10.9273 2.32544C10.9913 2.28846 11.0619 2.26444 11.1352 2.25477C11.2084 2.24509 11.2828 2.24995 11.3542 2.26907C12.4033 2.55115 13.3598 3.10395 14.1279 3.87209C14.8961 4.64024 15.4489 5.59675 15.7309 6.64581C15.7508 6.71743 15.7563 6.79228 15.7471 6.86604C15.7379 6.93979 15.7142 7.01099 15.6773 7.07552C15.6404 7.14004 15.591 7.19661 15.5321 7.24197C15.4733 7.28732 15.406 7.32055 15.3342 7.33973C15.2623 7.35892 15.1874 7.36368 15.1138 7.35375C15.0401 7.34382 14.9692 7.31938 14.905 7.28186C14.8408 7.24434 14.7847 7.19447 14.74 7.13514C14.6952 7.07581 14.6626 7.0082 14.6441 6.9362C14.4134 6.07804 13.9612 5.29557 13.3328 4.66721C12.7044 4.03884 11.922 3.58663 11.0638 3.35589C10.9197 3.31738 10.7968 3.22321 10.7221 3.09408C10.6474 2.96495 10.6271 2.81144 10.6656 2.66732ZM10.4813 5.52974C10.9581 5.65795 11.3927 5.90918 11.7418 6.25826C12.0908 6.60734 12.342 7.04202 12.4702 7.51874C12.5097 7.66182 12.6041 7.7835 12.7328 7.85728C12.8616 7.93106 13.0143 7.95096 13.1577 7.91264C13.3011 7.87432 13.4235 7.78089 13.4983 7.6527C13.5731 7.52451 13.5942 7.37196 13.557 7.22828C13.3775 6.56066 13.0257 5.95194 12.5369 5.46309C12.0481 4.97424 11.4393 4.62244 10.7717 4.44292C10.6282 4.40605 10.4758 4.42735 10.3479 4.50218C10.2199 4.57701 10.1267 4.69933 10.0884 4.84254C10.0501 4.98575 10.0699 5.13828 10.1435 5.26697C10.2171 5.39565 10.3385 5.49008 10.4813 5.52974ZM16.2813 12.3103C16.1592 13.2603 15.6953 14.1334 14.9765 14.7664C14.2576 15.3994 13.3329 15.7491 12.375 15.75C6.79205 15.75 2.25 11.208 2.25 5.62501C2.25096 4.66717 2.6006 3.74244 3.2336 3.02357C3.8666 2.30471 4.73967 1.84088 5.68969 1.71873C5.93143 1.6896 6.17611 1.73949 6.38715 1.86094C6.59819 1.9824 6.76426 2.16889 6.86053 2.39254L8.27325 5.68865C8.34653 5.85915 8.37641 6.04516 8.36021 6.23003C8.34401 6.41491 8.28225 6.59288 8.18044 6.74805L7.01079 8.53525L7.01065 8.53539C7.53881 9.60924 8.40983 10.4764 9.486 10.9998L11.2468 9.82605C11.4024 9.72192 11.5816 9.6584 11.768 9.64128C11.9544 9.62416 12.1422 9.65399 12.3141 9.72803L15.6074 11.1394C15.8311 11.2356 16.0176 11.4017 16.1391 11.6127C16.2606 11.8238 16.3105 12.0685 16.2813 12.3103ZM15.1652 12.1693L11.871 10.7621L10.1107 11.9359C9.94892 12.044 9.76184 12.1082 9.56778 12.1222C9.37372 12.1363 9.17934 12.0997 9.00366 12.0161C7.69529 11.3821 6.63678 10.3284 5.99681 9.02294C5.91277 8.8483 5.87528 8.65491 5.88799 8.46151C5.90071 8.26812 5.96319 8.0813 6.06938 7.91917L7.23909 6.13183L5.82652 2.83579C5.14887 2.92375 4.5264 3.2553 4.07529 3.76855C3.62418 4.28181 3.37526 4.94169 3.375 5.62501C3.3777 8.01114 4.32678 10.2988 6.01402 11.986C7.70126 13.6732 9.98888 14.6223 12.375 14.625C13.059 14.6245 13.7195 14.3749 14.2329 13.923C14.7464 13.4711 15.0778 12.8477 15.1652 12.1693Z" fill="white"/>
</svg>
