<svg width="13" height="11" viewBox="0 0 13 11" fill="none" xmlns="http://www.w3.org/2000/svg">
<path d="M11.4055 0.748116C11.265 0.758334 11.1272 0.791284 10.9973 0.845679H10.9955C10.8708 0.895116 10.278 1.14449 9.37678 1.52249L6.14715 2.88268C3.82971 3.8583 1.55165 4.81905 1.55165 4.81905L1.57878 4.80855C1.57878 4.80855 1.42171 4.86018 1.25765 4.97262C1.15629 5.03711 1.06908 5.1215 1.00128 5.22068C0.920776 5.3388 0.856026 5.51949 0.880088 5.70631C0.919463 6.02218 1.12421 6.21162 1.27121 6.31618C1.41996 6.42205 1.56171 6.47149 1.56171 6.47149H1.56521L3.70153 7.19118C3.79734 7.49874 4.35253 9.32399 4.48596 9.74443C4.56471 9.99556 4.64128 10.1526 4.73709 10.2725C4.78346 10.3337 4.83771 10.3849 4.9029 10.4261C4.93679 10.4458 4.97292 10.4613 5.01053 10.4724L4.98865 10.4672C4.99521 10.4689 5.00046 10.4742 5.00528 10.4759C5.02278 10.4807 5.03459 10.4825 5.0569 10.486C5.39509 10.5884 5.66678 10.3784 5.66678 10.3784L5.68209 10.3661L6.9434 9.21768L9.0574 10.8395L9.10553 10.8601C9.54609 11.0534 9.99234 10.9458 10.2281 10.7559C10.4657 10.5647 10.558 10.3202 10.558 10.3202L10.5733 10.2808L12.207 1.91187C12.2533 1.70537 12.2651 1.51199 12.214 1.3243C12.1612 1.13435 12.0393 0.970982 11.8723 0.866241C11.732 0.780979 11.5694 0.739825 11.4055 0.748116ZM11.3613 1.64499C11.3595 1.67255 11.3648 1.66949 11.3525 1.72243V1.72724L9.73421 10.0091C9.72721 10.0209 9.7154 10.0467 9.68302 10.0726C9.6489 10.0997 9.62177 10.1167 9.47959 10.0603L6.89396 8.07799L5.33209 9.50162L5.66021 7.40599L9.88471 3.46849C10.0588 3.30662 10.0006 3.27249 10.0006 3.27249C10.0129 3.07387 9.73771 3.2143 9.73771 3.2143L4.41071 6.51437L4.40896 6.50562L1.85571 5.64593V5.64418L1.84915 5.64287C1.85363 5.64138 1.85801 5.63963 1.86228 5.63762L1.87628 5.63062L1.88984 5.6258C1.88984 5.6258 4.16965 4.66505 6.48709 3.68943C7.64734 3.20074 8.81634 2.70855 9.7154 2.3288C10.6145 1.95124 11.279 1.6743 11.3167 1.65943C11.3525 1.64543 11.3355 1.64543 11.3613 1.64543V1.64499Z" fill="white"/>
</svg>
