<svg width="14" height="10" viewBox="0 0 14 10" fill="none" xmlns="http://www.w3.org/2000/svg">
<path d="M13.125 4.96182C13.125 4.93174 13.125 4.89756 13.1236 4.85791C13.1223 4.74717 13.1195 4.62275 13.1168 4.49014C13.1059 4.10869 13.0867 3.72861 13.0566 3.37041C13.0156 2.87686 12.9555 2.46533 12.8734 2.15635C12.7869 1.8339 12.6172 1.53981 12.3813 1.30349C12.1455 1.06717 11.8518 0.896889 11.5295 0.809668C11.1426 0.705762 10.3852 0.641504 9.31875 0.601855C8.81152 0.582715 8.26875 0.57041 7.72598 0.563574C7.53594 0.56084 7.35957 0.559473 7.20098 0.558105H6.79902C6.64043 0.559473 6.46406 0.56084 6.27402 0.563574C5.73125 0.57041 5.18848 0.582715 4.68125 0.601855C3.61484 0.642871 2.85605 0.707129 2.47051 0.809668C2.14813 0.896675 1.85427 1.06688 1.6184 1.30324C1.38253 1.53959 1.21291 1.83379 1.12656 2.15635C1.04316 2.46533 0.984375 2.87686 0.943359 3.37041C0.913281 3.72861 0.894141 4.10869 0.883203 4.49014C0.879102 4.62275 0.877734 4.74717 0.876367 4.85791C0.876367 4.89756 0.875 4.93174 0.875 4.96182V5.03838C0.875 5.06846 0.875 5.10264 0.876367 5.14229C0.877734 5.25303 0.880469 5.37744 0.883203 5.51006C0.894141 5.8915 0.913281 6.27158 0.943359 6.62979C0.984375 7.12334 1.04453 7.53486 1.12656 7.84385C1.30156 8.49873 1.81562 9.01553 2.47051 9.19053C2.85605 9.29443 3.61484 9.35869 4.68125 9.39834C5.18848 9.41748 5.73125 9.42979 6.27402 9.43662C6.46406 9.43936 6.64043 9.44072 6.79902 9.44209H7.20098C7.35957 9.44072 7.53594 9.43936 7.72598 9.43662C8.26875 9.42979 8.81152 9.41748 9.31875 9.39834C10.3852 9.35732 11.1439 9.29307 11.5295 9.19053C12.1844 9.01553 12.6984 8.5001 12.8734 7.84385C12.9568 7.53486 13.0156 7.12334 13.0566 6.62979C13.0867 6.27158 13.1059 5.8915 13.1168 5.51006C13.1209 5.37744 13.1223 5.25303 13.1236 5.14229C13.1236 5.10264 13.125 5.06846 13.125 5.03838V4.96182ZM12.1406 5.03291C12.1406 5.06162 12.1406 5.09307 12.1393 5.12998C12.1379 5.23662 12.1352 5.3542 12.1324 5.48135C12.1229 5.84502 12.1037 6.20869 12.075 6.54639C12.0381 6.98662 11.9861 7.34756 11.9219 7.58955C11.8371 7.90537 11.5883 8.15557 11.2738 8.23897C10.9867 8.31553 10.2635 8.37705 9.28047 8.41397C8.78281 8.43311 8.24687 8.44541 7.7123 8.45225C7.525 8.45498 7.35137 8.45635 7.19551 8.45635H6.80449L6.2877 8.45225C5.75312 8.44541 5.21855 8.43311 4.71953 8.41397C3.73652 8.37568 3.01191 8.31553 2.72617 8.23897C2.41172 8.1542 2.16289 7.90537 2.07812 7.58955C2.01387 7.34756 1.96191 6.98662 1.925 6.54639C1.89629 6.20869 1.87852 5.84502 1.86758 5.48135C1.86348 5.3542 1.86211 5.23525 1.86074 5.12998C1.86074 5.09307 1.85938 5.06025 1.85938 5.03291V4.96729C1.85938 4.93857 1.85938 4.90713 1.86074 4.87021C1.86211 4.76357 1.86484 4.646 1.86758 4.51885C1.87715 4.15518 1.89629 3.7915 1.925 3.45381C1.96191 3.01357 2.01387 2.65264 2.07812 2.41064C2.16289 2.09482 2.41172 1.84463 2.72617 1.76123C3.01328 1.68467 3.73652 1.62314 4.71953 1.58623C5.21719 1.56709 5.75312 1.55479 6.2877 1.54795C6.475 1.54521 6.64863 1.54385 6.80449 1.54385H7.19551L7.7123 1.54795C8.24687 1.55479 8.78145 1.56709 9.28047 1.58623C10.2635 1.62451 10.9881 1.68467 11.2738 1.76123C11.5883 1.846 11.8371 2.09482 11.9219 2.41064C11.9861 2.65264 12.0381 3.01357 12.075 3.45381C12.1037 3.7915 12.1215 4.15518 12.1324 4.51885C12.1365 4.646 12.1379 4.76494 12.1393 4.87021C12.1393 4.90713 12.1406 4.93994 12.1406 4.96729V5.03291ZM5.7832 6.83213L8.95508 4.98643L5.7832 3.16807V6.83213Z" fill="white"/>
</svg>
